# xmcd
#
# Track frame offsets: 
#        150
#        12597
#        22565
#        30885
#        42405
#        52590
#        69005
#        78682
#        91185
#        103912
#        116440
#        128557
#        139132
#        159365
#        169317
#        181090
#        190805
#        203357
#        214770
#        225520
#
# Disc length: 3165 seconds
#
# Revision: 4
# Processed by: cddbd v1.5.2PL0 Copyright (c) Steve Scherf et al.
# Submitted via: ExactAudioCopy v1.1
#
DISCID=eb0c5b14
DTITLE=ORIGINAL TUNE - OLDIES2
DYEAR=0
DGENRE=
TTITLE0=Oh! Pretty Woman
TTITLE1=Calender Girl
TTITLE2=Crazy Love
TTITLE3=Sherry
TTITLE4=Love Letters In The Sand
TTITLE5=Poety In Motion
TTITLE6=You Don't Know
TTITLE7=A White Shade Of Pale
TTITLE8=When A Man Lovers A Woman
TTITLE9=Rock Around The Clook
TTITLE10=I Can't Stop Loving You
TTITLE11=Baby Face
TTITLE12=Smoke Gets In Your Eyes
TTITLE13=Stand By Me
TTITLE14=Where The Boys Are
TTITLE15=Diana
TTITLE16=Vcation
TTITLE17=Lipstick On Your Collar
TTITLE18=Oh! Carol
TTITLE19=Pretty Little Baby
EXTD=
EXTT0=
EXTT1=
EXTT2=
EXTT3=
EXTT4=
EXTT5=
EXTT6=
EXTT7=
EXTT8=
EXTT9=
EXTT10=
EXTT11=
EXTT12=
EXTT13=
EXTT14=
EXTT15=
EXTT16=
EXTT17=
EXTT18=
EXTT19=
PLAYORDER=
